<svg width="20" height="20" viewBox="0 0 20 20" fill="none" xmlns="http://www.w3.org/2000/svg">
<path d="M5 9.16669C5 6.80966 5 5.63115 5.73223 4.89892C6.46447 4.16669 7.64298 4.16669 10 4.16669H12.5C14.857 4.16669 16.0355 4.16669 16.7678 4.89892C17.5 5.63115 17.5 6.80966 17.5 9.16669V13.3334C17.5 15.6904 17.5 16.8689 16.7678 17.6011C16.0355 18.3334 14.857 18.3334 12.5 18.3334H10C7.64298 18.3334 6.46447 18.3334 5.73223 17.6011C5 16.8689 5 15.6904 5 13.3334V9.16669Z" stroke="#1C274C" stroke-width="1.5"/>
<path d="M5 15.8334C3.61929 15.8334 2.5 14.7141 2.5 13.3334V8.33335C2.5 5.19066 2.5 3.61931 3.47631 2.643C4.45262 1.66669 6.02397 1.66669 9.16667 1.66669H12.5C13.8807 1.66669 15 2.78598 15 4.16669" stroke="#1C274C" stroke-width="1.5"/>
</svg>
