<svg width="20" height="20" viewBox="0 0 20 20" fill="none" xmlns="http://www.w3.org/2000/svg">
<g clip-path="url(#clip0_18_3012)">
<path d="M1.66663 10C1.66663 6.07165 1.66663 4.10746 2.88701 2.88708C4.1074 1.66669 6.07159 1.66669 9.99996 1.66669C13.9283 1.66669 15.8925 1.66669 17.1129 2.88708C18.3333 4.10746 18.3333 6.07165 18.3333 10C18.3333 13.9284 18.3333 15.8926 17.1129 17.113C15.8925 18.3334 13.9283 18.3334 9.99996 18.3334C6.07159 18.3334 4.1074 18.3334 2.88701 17.113C1.66663 15.8926 1.66663 13.9284 1.66663 10Z" stroke="white" stroke-width="1.5"/>
<circle cx="13.3333" cy="6.66667" r="1.66667" stroke="white" stroke-width="1.5"/>
<path d="M1.66663 10.4168L3.12628 9.13957C3.88567 8.47511 5.03019 8.51322 5.7437 9.22673L9.31847 12.8015C9.89116 13.3742 10.7927 13.4523 11.4553 12.9866L11.7038 12.8119C12.6573 12.1418 13.9474 12.2195 14.8137 12.9991L17.5 15.4168" stroke="white" stroke-width="1.5" stroke-linecap="round"/>
</g>
<defs>
<clipPath id="clip0_18_3012">
<rect width="20" height="20" fill="white"/>
</clipPath>
</defs>
</svg>
