<svg width="72" height="72" viewBox="0 0 72 72" fill="none" xmlns="http://www.w3.org/2000/svg">
<path d="M66 36C66 50.1421 66 57.2132 61.6066 61.6066C57.2132 66 50.1421 66 36 66C21.8579 66 14.7868 66 10.3934 61.6066C6 57.2132 6 50.1421 6 36C6 21.8579 6 14.7868 10.3934 10.3934C14.7868 6 21.8579 6 36 6" stroke="#FA7B3D" stroke-width="4.5" stroke-linecap="round"/>
<path d="M6 37.4997L11.2548 32.9018C13.9886 30.5097 18.1088 30.6469 20.6775 33.2156L33.5466 46.0847C35.6083 48.1464 38.8537 48.4275 41.2392 46.7511L42.1338 46.1223C45.5665 43.7099 50.2108 43.9894 53.3294 46.7961L63 55.4997" stroke="#FA7B3D" stroke-width="4.5" stroke-linecap="round"/>
<path d="M42 18H54M54 18H66M54 18V30M54 18V6" stroke="#FA7B3D" stroke-width="4.5" stroke-linecap="round"/>
</svg>
