<svg width="20" height="20" viewBox="0 0 20 20" fill="none" xmlns="http://www.w3.org/2000/svg">
<g clip-path="url(#clip0_18_3008)">
<path d="M20 7.02049C20 3.47791 17.1178 0.595825 13.575 0.595825C12.2526 0.595825 11.0223 0.997534 9.99954 1.68516C8.97663 0.997534 7.74625 0.595825 6.42371 0.595825C2.88167 0.595825 0 3.47791 0 7.02049C0 9.54216 1.45992 11.7288 3.57842 12.7802C3.57642 12.8464 3.57504 12.9128 3.57504 12.9795C3.57504 16.5221 6.45725 19.4042 10 19.4042C13.5431 19.4042 16.4256 16.5221 16.4256 12.9795C16.4256 12.9126 16.4242 12.846 16.4222 12.7796C18.5404 11.7279 20 9.54162 20 7.02049ZM9.99958 2.72508C11.1968 3.72308 11.9721 5.21083 12.0142 6.87762C11.3803 6.66787 10.7033 6.55391 10 6.55391C9.2965 6.55391 8.61921 6.66795 7.98521 6.87787C8.02717 5.21099 8.80242 3.72316 9.99958 2.72508ZM8.03038 7.74583C8.64329 7.51433 9.30704 7.38728 10 7.38728C10.6927 7.38728 11.3562 7.51424 11.969 7.74553C11.7832 9.17478 11.0555 10.4362 9.99958 11.3167C8.94379 10.4363 8.21629 9.17499 8.03038 7.74583ZM9.30125 11.8139C8.46004 12.3207 7.47538 12.6127 6.42371 12.6127C5.73121 12.6127 5.06783 12.4858 4.45529 12.2545C4.686 10.4801 5.75158 8.96433 7.24375 8.11528C7.49533 9.57474 8.24075 10.8672 9.30125 11.8139ZM12.7557 8.11483C14.2483 8.9637 15.3143 10.4795 15.5453 12.254C14.9322 12.4856 14.2682 12.6127 13.575 12.6127C12.5235 12.6127 11.539 12.3208 10.6979 11.8139C11.7586 10.8671 12.5042 9.57449 12.7557 8.11483ZM0.833333 7.02049C0.833333 3.93741 3.34117 1.42916 6.42371 1.42916C7.47533 1.42916 8.45996 1.72108 9.30117 2.22787C7.98208 3.40533 7.15004 5.11745 7.15004 7.02049C7.15004 7.08733 7.15142 7.15378 7.15346 7.22012C5.34833 8.11608 4.02175 9.83595 3.66867 11.885C1.97692 10.9225 0.833333 9.10266 0.833333 7.02049ZM10 18.5708C6.96454 18.5708 4.48625 16.1397 4.41017 13.1224C5.04383 13.3321 5.72067 13.4461 6.42371 13.4461C7.74625 13.4461 8.97663 13.0443 9.99954 12.3566C11.0223 13.0443 12.2526 13.4461 13.575 13.4461C14.2788 13.4461 14.9563 13.332 15.5905 13.1219C15.5146 16.1395 13.036 18.5708 10 18.5708ZM16.3318 11.8844C15.9785 9.83528 14.6515 8.11545 12.8459 7.2197C12.8479 7.15353 12.8493 7.08716 12.8493 7.02053C12.8493 5.11745 12.0172 3.40533 10.698 2.22787C11.539 1.72108 12.5235 1.42916 13.575 1.42916C16.6583 1.42916 19.1667 3.93741 19.1667 7.02049C19.1667 9.1022 18.0233 10.9217 16.3318 11.8844Z" fill="white"/>
</g>
<defs>
<clipPath id="clip0_18_3008">
<rect width="20" height="20" fill="white"/>
</clipPath>
</defs>
</svg>
